<svg id="goqsystem" data-name="レイヤー 1" xmlns="http://www.w3.org/2000/svg" viewBox="0 0 518.37 123.59"><defs><style>.cls-1{fill:#be0200}</style></defs><path class="cls-1" d="M84 42.48L72.39 53.69c-7.33-7.57-15.91-11.39-25.7-11.39-8.55 0-15.68 2.77-21.45 8.29a26.74 26.74 0 0 0-8.63 20.06 27.41 27.41 0 0 0 9 20.71q9 8.51 22.13 8.49 8.56 0 14.42-3.51a24.65 24.65 0 0 0 9.47-11H46.44V70.31H90.1l.11 3.56a40.4 40.4 0 0 1-5.89 21A40.78 40.78 0 0 1 69 110c-6.25 3.47-13.6 5.21-22 5.21a49.74 49.74 0 0 1-24.1-5.73A42.17 42.17 0 0 1 6.17 93.24 44.25 44.25 0 0 1 0 70.47a41.69 41.69 0 0 1 11.38-29.13q13.53-14.76 35.17-14.75a55.23 55.23 0 0 1 21.19 4.07Q76.05 34.13 84 42.48zm42.66 6.65a34.8 34.8 0 0 1 17.06 4.42 32.45 32.45 0 0 1 12.45 12 32.61 32.61 0 0 1-12.32 44.84 34.84 34.84 0 0 1-17.13 4.32 32.39 32.39 0 0 1-23.51-9.53A31.17 31.17 0 0 1 93.46 82a31.17 31.17 0 0 1 11-24.35 32.85 32.85 0 0 1 22.2-8.52zm.25 14.73a16.75 16.75 0 0 0-12.44 5 17.84 17.84 0 0 0-5 13q0 8.13 4.9 13.18a18 18 0 0 0 25-.07 18 18 0 0 0 5-13.11q0-8-4.93-13a16.84 16.84 0 0 0-12.53-5zM243 100.74l15.15 19h-19.63l-7.67-9.56a44.51 44.51 0 0 1-21.17 5c-13.05 0-23.84-4.38-32.46-13.12a43 43 0 0 1-12.92-31.19 42.69 42.69 0 0 1 6-22.22 44.32 44.32 0 0 1 16.54-16.1 45.32 45.32 0 0 1 22.62-6 43.76 43.76 0 0 1 31.71 13 42.54 42.54 0 0 1 13.24 31.59 42.11 42.11 0 0 1-11.41 29.6zm-10.33-13A28.93 28.93 0 0 0 237.82 71a27.74 27.74 0 0 0-8.32-20.35 27.28 27.28 0 0 0-20.07-8.38 27.7 27.7 0 0 0-20.34 8.17q-8.16 8.13-8.18 20.69 0 14 10.33 22.14a28.83 28.83 0 0 0 18.34 6.36 28.3 28.3 0 0 0 11.1-2.2l-15.59-19.49h19.7zm69.15-20.82l-9.14 6.24q-4.8-5.16-9.79-5.16a7.36 7.36 0 0 0-4 1 2.78 2.78 0 0 0-1.55 2.25 3.32 3.32 0 0 0 1.12 2.37c1 1 4 3.14 9 6.43 4.7 3 7.55 5 8.55 5.73a20.37 20.37 0 0 1 5.31 5.59 11.19 11.19 0 0 1 1.68 5.8q0 6.15-5.54 10.15c-3.69 2.69-8.47 4-14.39 4a26.46 26.46 0 0 1-12.09-2.63 23.19 23.19 0 0 1-8.81-8.21l10.37-4.82c3.12 4.4 6.73 6.62 10.78 6.62a9.55 9.55 0 0 0 5.34-1.43 4 4 0 0 0 2.16-3.27 4.91 4.91 0 0 0-1.63-3.41A44.32 44.32 0 0 0 282 89c-7-4.41-11.62-7.85-13.68-10.26a11.22 11.22 0 0 1-3.09-7.22c0-3.45 1.71-6.43 5.15-8.9a21.33 21.33 0 0 1 12.72-3.71 25.1 25.1 0 0 1 9.24 1.72 33.78 33.78 0 0 1 9.48 6.29z"/><path class="cls-1" d="M301.18 73.16h11.22l11.3 23.17 12.49-23.17h11.18l-27.27 50.43h-11.24l8.9-16.33zm78.87 5.17l-7.44 5.74q-4.53-3.45-8.24-3.45a6.39 6.39 0 0 0-3.15.66 1.93 1.93 0 0 0-1.22 1.65 1.81 1.81 0 0 0 .75 1.37 14.81 14.81 0 0 0 3.62 1.7l4.41 1.69c4.65 1.75 7.85 3.55 9.57 5.37a9.06 9.06 0 0 1 2.65 6.47c0 3.26-1.58 6-4.7 8.2s-7.33 3.29-12.6 3.29c-7 0-12.57-2.1-16.76-6.33l7.41-6.21a17.12 17.12 0 0 0 5 3.07 13.22 13.22 0 0 0 5 1.19 7.11 7.11 0 0 0 3.84-.9 2.42 2.42 0 0 0 1.44-2c0-1.42-1.74-2.81-5.25-4.15l-4.06-1.56c-7.76-3-11.64-6.77-11.64-11.3 0-2.91 1.46-5.41 4.38-7.47s6.66-3.1 11.22-3.1a24.57 24.57 0 0 1 8.8 1.58 19.24 19.24 0 0 1 6.97 4.49zm9.55-18.86h10.91v13.69H407v8h-6.45v29H389.6v-29H384v-8h5.58zm64.03 34.82h-35.11a9.57 9.57 0 0 0 4.05 6.22 14.36 14.36 0 0 0 8.43 2.31 16.08 16.08 0 0 0 10.51-3.61l9.19 3.67a21.14 21.14 0 0 1-8.24 6.16 30.19 30.19 0 0 1-11.4 2q-10.23 0-16.68-5.5a17.18 17.18 0 0 1-6.44-13.69 17.76 17.76 0 0 1 6.44-14q6.42-5.58 16.11-5.58c6.87 0 12.43 1.86 16.74 5.58a18.54 18.54 0 0 1 6.46 14.7zM442.79 87a9.56 9.56 0 0 0-4.29-5 14.11 14.11 0 0 0-7.42-1.91 14.76 14.76 0 0 0-8 2.16A12 12 0 0 0 419 87zM458 73.16h9.83v4.3a17.29 17.29 0 0 1 5.64-3.93 17.54 17.54 0 0 1 6.78-1.3A13.06 13.06 0 0 1 486.9 74a12.37 12.37 0 0 1 4.8 5 15.34 15.34 0 0 1 5.8-5 16.44 16.44 0 0 1 7.5-1.77 14.47 14.47 0 0 1 7.39 1.84 11 11 0 0 1 4.6 4.78c.92 2 1.39 5.16 1.39 9.59v21.65h-9.84V91.42c0-4.18-.57-7-1.68-8.47a6 6 0 0 0-5.07-2.22 8.13 8.13 0 0 0-7.62 5.09 22 22 0 0 0-1 7.66v16.61h-9.84V92.27a23.41 23.41 0 0 0-.79-7.15 6.25 6.25 0 0 0-2.34-3.28 6.43 6.43 0 0 0-3.82-1.11 7.85 7.85 0 0 0-4.5 1.36 8.14 8.14 0 0 0-3.05 3.85 22 22 0 0 0-1 7.78v16.37H458z"/><path d="M106.89 27.58a21.33 21.33 0 0 1-5.44-1.32 14.44 14.44 0 0 1-4.68-3 4.48 4.48 0 0 1-.44-.84 1.7 1.7 0 0 1-.06-1l.53-.94a3 3 0 0 1 .83-.4 1.91 1.91 0 0 1 .92 0l.93.51a3.1 3.1 0 0 0 1.12.92 5 5 0 0 1 1.22.82 16.29 16.29 0 0 0 3.57 1.11 25.15 25.15 0 0 0 3.87.45l2.91-.36.94.53a3.24 3.24 0 0 1 .4.84 1.87 1.87 0 0 1 0 .91l-.52 1a7.87 7.87 0 0 1-2.93.82 17.71 17.71 0 0 1-3.17-.05zm1.2-19.45a22.3 22.3 0 0 0-4.53-1.77c-1.6-.43-3.18-.86-4.77-1.31a2.68 2.68 0 0 1-.39-.84 1.65 1.65 0 0 1 0-.91l.51-.94a2.89 2.89 0 0 1 1.18-.48 5.6 5.6 0 0 1 1.35-.08c1.4.44 2.81.87 4.23 1.27a16.83 16.83 0 0 1 4 1.77 2.52 2.52 0 0 1 .39.83 2 2 0 0 1 0 1l-.51.94a1.45 1.45 0 0 1-.69.34zm9.71.37l-2.19-1.32a10 10 0 0 0-1.39-1.51 2.25 2.25 0 0 1-.72-1.85l.44-1a2.4 2.4 0 0 1 .79-.48 1.78 1.78 0 0 1 .9-.11l1 .44c.42.42.81.87 1.2 1.33a3.94 3.94 0 0 0 1.39 1 2.94 2.94 0 0 1 .63.83A2.18 2.18 0 0 1 120 7l-.43 1a3.12 3.12 0 0 1-.81.47 1.85 1.85 0 0 1-.96.03zm3.33-3.36l-1-.42v-.19H120c-.27-.44-.6-.88-.94-1.34a2.23 2.23 0 0 1-.46-1.57l.42-1a2.47 2.47 0 0 1 .78-.46 1.68 1.68 0 0 1 .92-.11l1 .42a17.34 17.34 0 0 0 1.09 1.49 2.33 2.33 0 0 1 .52 1.66l-.43 1a2.71 2.71 0 0 1-.78.47 1.77 1.77 0 0 1-.99.05zm18.65 22.01q-3.45-2-6.82-4.28c-2.25-1.52-4.46-3.12-6.61-4.81a2.16 2.16 0 0 1-.52-1 2.56 2.56 0 0 1 0-1.2l.56-1h.2l1.67-2.42h.2l1.54-1.9c1.16-1.12 2.3-2.31 3.43-3.54A37.34 37.34 0 0 1 137 3.51l.43-.4a10.42 10.42 0 0 1 1.34-1 2.34 2.34 0 0 1 1.63-.29l1 .56a3.11 3.11 0 0 1 .41.91 2.23 2.23 0 0 1 0 1.13l-.56 1-.33.29-.53.19v.2l-.76.7-.43.4a19.1 19.1 0 0 0-1.71 1.53 11.45 11.45 0 0 0-1.43 1.65l-.76.91-.76.69-.76.69-.75.71-.55.49h-.2l-.33.6-1.34 1.93c1.75 1.25 3.52 2.43 5.3 3.6s3.59 2.34 5.4 3.59a5.32 5.32 0 0 1 .49.91 1.86 1.86 0 0 1 0 1.08l-.56 1a1.49 1.49 0 0 1-.75.38zm10.82-11.23c-.26-.1-.51-.19-.74-.3a3.67 3.67 0 0 1-.66-.31 5.57 5.57 0 0 1-.39-.82 2.09 2.09 0 0 1-.05-1l.51-1a16 16 0 0 1 4.19-.7c1.34 0 2.78-.07 4.32-.12h4.2l2.41-.06 1.53.23 5 .07c.31.05.64.13 1 .21a2.4 2.4 0 0 1 .85.41 4.27 4.27 0 0 1 .41.83 1.88 1.88 0 0 1 .09 1l-.57 1a1.43 1.43 0 0 1-1 .41h-1.14l-.12-.1-4.9-.07-3.36-.22h-4.39z" fill="#2f2725"/></svg>